<svg xmlns="http://www.w3.org/2000/svg" aria-hidden="true" style="position:absolute;width:0;height:0;overflow:hidden">
  <defs>
    <symbol id="icon-arrow" viewBox="0 0 32 32">
      <path stroke-linecap="round" stroke-linejoin="round" stroke-width="3.2" d="M16 4.8V24M25.333 16 16 25.333 6.667 16"/>
    </symbol>
    <symbol id="icon-search" viewBox="0 0 32 32">
      <path stroke-linecap="round" stroke-linejoin="round" stroke-width="2.667" d="M14.667 25.333c5.891 0 10.667-4.776 10.667-10.667S20.558 3.999 14.667 3.999 4 8.775 4 14.666s4.776 10.667 10.667 10.667zM28 28l-5.8-5.8"/>
    </symbol>
    <symbol id="icon-message-question" viewBox="0 0 32 32">
      <path d="M10.667 29.76a2.35 2.35 0 0 1-1.107-.28c-.76-.4-1.227-1.2-1.227-2.053v-1.893c-4.027-.413-6.667-3.373-6.667-7.613v-8c0-4.587 3.08-7.667 7.667-7.667h13.333c4.587 0 7.667 3.08 7.667 7.667v8c0 4.587-3.08 7.667-7.667 7.667h-5.027l-5.68 3.787c-.387.253-.84.387-1.293.387zM9.333 4.24c-3.44 0-5.667 2.227-5.667 5.667v8c0 3.44 2.227 5.667 5.667 5.667.547 0 1 .453 1 1v2.84c0 .173.107.253.173.293s.2.08.347-.013l5.933-3.947c.16-.107.36-.173.56-.173h5.333c3.44 0 5.667-2.227 5.667-5.667v-8c0-3.44-2.227-5.667-5.667-5.667H9.332z"/>
      <path d="M16 16.147c-.547 0-1-.453-1-1v-.28c0-1.547 1.133-2.307 1.56-2.6.493-.333.653-.56.653-.907 0-.667-.547-1.213-1.213-1.213s-1.213.547-1.213 1.213c0 .547-.453 1-1 1s-1-.453-1-1c0-1.773 1.44-3.213 3.213-3.213s3.213 1.44 3.213 3.213c0 1.52-1.12 2.28-1.533 2.56-.52.347-.68.573-.68.947v.28c0 .56-.453 1-1 1zM16 19.467c-.56 0-1-.453-1-1s.453-1 1-1c.547 0 1 .453 1 1s-.44 1-1 1z"/>
    </symbol>
    <symbol id="icon-discount-shape" viewBox="0 0 32 32">
      <path d="M16 30.334a3.06 3.06 0 0 1-2.213-.92l-2.027-2.027c-.16-.16-.587-.333-.8-.333H8.08a3.13 3.13 0 0 1-3.133-3.133v-2.88c0-.213-.173-.64-.333-.8l-2.027-2.027c-.587-.587-.92-1.373-.92-2.213s.32-1.627.92-2.213l2.027-2.027c.16-.16.333-.587.333-.8v-2.88A3.13 3.13 0 0 1 8.08 4.948h2.88c.213 0 .64-.173.8-.333l2.027-2.027c1.173-1.173 3.253-1.173 4.427 0l2.027 2.027c.16.16.587.333.8.333h2.88a3.13 3.13 0 0 1 3.133 3.133v2.88c0 .213.173.64.333.8l2.027 2.027c.587.587.92 1.373.92 2.213s-.32 1.627-.92 2.213l-2.027 2.027c-.16.16-.333.587-.333.8v2.88a3.13 3.13 0 0 1-3.133 3.133h-2.88c-.213 0-.64.173-.8.333l-2.027 2.027c-.587.6-1.373.92-2.213.92zM6.027 18.827c.533.533.92 1.467.92 2.213v2.88c0 .627.507 1.133 1.133 1.133h2.88c.747 0 1.68.387 2.213.92L15.2 28a1.16 1.16 0 0 0 1.6 0l2.027-2.027c.533-.533 1.467-.92 2.213-.92h2.88c.627 0 1.133-.507 1.133-1.133v-2.88c0-.747.387-1.68.92-2.213L28 16.8c.213-.213.333-.493.333-.8s-.12-.587-.333-.8l-2.027-2.027c-.533-.533-.92-1.467-.92-2.213V8.08c0-.627-.507-1.133-1.133-1.133h-2.88c-.747 0-1.68-.387-2.213-.92L16.8 4a1.16 1.16 0 0 0-1.6 0l-2.027 2.027c-.533.533-1.467.92-2.213.92H8.08c-.627 0-1.133.507-1.133 1.133v2.88c0 .747-.387 1.68-.92 2.213L4 15.2c-.213.213-.333.493-.333.8s.12.587.333.8l2.027 2.027z"/>
      <path d="M20 21.333c-.747 0-1.347-.6-1.347-1.333s.6-1.333 1.333-1.333 1.333.6 1.333 1.333-.587 1.333-1.32 1.333zM12.013 13.333c-.747 0-1.347-.6-1.347-1.333s.6-1.333 1.333-1.333 1.333.6 1.333 1.333-.587 1.333-1.32 1.333zM11.999 20.999a.99.99 0 0 1-.707-.293 1.005 1.005 0 0 1 0-1.413l8-8c.387-.387 1.027-.387 1.413 0s.387 1.027 0 1.413l-8 8c-.2.2-.453.293-.707.293z"/>
    </symbol>
    <symbol id="icon-wallet-money" viewBox="0 0 32 32">
      <path stroke-linecap="round" stroke-linejoin="round" stroke-width="2" d="M14.335 22.481v2.707c0 2.293-2.133 4.147-4.76 4.147s-4.773-1.853-4.773-4.147v-2.707c0 2.293 2.133 3.92 4.773 3.92 2.627 0 4.76-1.64 4.76-3.92z"/>
      <path stroke-linecap="round" stroke-linejoin="round" stroke-width="2" d="M14.333 18.813c0 .667-.187 1.28-.507 1.813-.787 1.293-2.4 2.107-4.267 2.107s-3.48-.827-4.267-2.107a3.498 3.498 0 0 1-.507-1.813c0-1.147.533-2.173 1.387-2.92.867-.76 2.053-1.213 3.373-1.213s2.507.467 3.373 1.213c.88.733 1.413 1.773 1.413 2.92z"/>
      <path stroke-linecap="round" stroke-linejoin="round" stroke-width="2" d="M14.335 18.813v3.667c0 2.293-2.133 3.92-4.76 3.92s-4.773-1.64-4.773-3.92v-3.667c0-2.293 2.133-4.147 4.773-4.147 1.32 0 2.507.467 3.373 1.213.853.747 1.387 1.787 1.387 2.933zM29.333 14.627v2.747A1.37 1.37 0 0 1 28 18.734h-2.613c-1.44 0-2.76-1.053-2.88-2.493-.08-.84.24-1.627.8-2.173a2.655 2.655 0 0 1 1.92-.8H28a1.369 1.369 0 0 1 1.333 1.36z"/>
      <path stroke-linecap="round" stroke-linejoin="round" stroke-width="2" d="M2.667 14v-2.667c0-3.627 2.187-6.16 5.587-6.587.347-.053.707-.08 1.08-.08h12c.347 0 .68.013 1 .067 3.44.4 5.667 2.947 5.667 6.6v1.933h-2.773c-.747 0-1.427.293-1.92.8a2.678 2.678 0 0 0-.8 2.173c.12 1.44 1.44 2.493 2.88 2.493h2.613v1.933c0 4-2.667 6.667-6.667 6.667h-3.333"/>
    </symbol>
    <symbol id="icon-user-square" viewBox="0 0 32 32">
      <path d="M20.001 30.333h-8c-1.76 0-3.227-.173-4.467-.547a1.022 1.022 0 0 1-.72-1.04c.333-3.987 4.373-7.12 9.187-7.12s8.84 3.12 9.187 7.12a.983.983 0 0 1-.72 1.04c-1.24.373-2.707.547-4.467.547zM8.961 28.08c.88.173 1.88.253 3.04.253h8c1.16 0 2.16-.08 3.04-.253-.707-2.56-3.627-4.453-7.04-4.453s-6.333 1.893-7.04 4.453z"/>
      <path stroke-linecap="round" stroke-linejoin="round" stroke-width="2" d="M20 2.667h-8c-6.667 0-9.333 2.667-9.333 9.333v8c0 5.04 1.52 7.8 5.147 8.827.293-3.467 3.853-6.2 8.187-6.2s7.893 2.733 8.187 6.2C27.815 27.8 29.335 25.04 29.335 20v-8c0-6.667-2.667-9.333-9.333-9.333zm-4 16.226c-2.64 0-4.773-2.147-4.773-4.787S13.36 9.333 16 9.333c2.64 0 4.773 2.133 4.773 4.773S18.64 18.893 16 18.893z"/>
      <path d="M16 19.893c-3.187 0-5.773-2.6-5.773-5.787S12.814 8.333 16 8.333c3.187 0 5.773 2.587 5.773 5.773S19.186 19.893 16 19.893zm0-9.56a3.778 3.778 0 0 0-3.773 3.773c0 2.093 1.693 3.787 3.773 3.787a3.78 3.78 0 0 0 0-7.56z"/>
    </symbol>
    <symbol id="icon-d-square" viewBox="0 0 32 32">
      <path d="M20 30.333h-8C4.76 30.333 1.667 27.24 1.667 20v-8C1.667 4.76 4.76 1.667 12 1.667h8c7.24 0 10.333 3.093 10.333 10.333v8c0 7.24-3.093 10.333-10.333 10.333zM12 3.667c-6.147 0-8.333 2.187-8.333 8.333v8c0 6.147 2.187 8.333 8.333 8.333h8c6.147 0 8.333-2.187 8.333-8.333v-8c0-6.147-2.187-8.333-8.333-8.333h-8z"/>
      <path d="M16.001 17.44a1 1 0 0 1-.507-.133l-7.067-4.08a.99.99 0 0 1-.36-1.36.99.99 0 0 1 1.36-.36l6.56 3.8 6.52-3.773c.48-.28 1.093-.107 1.36.36s.107 1.093-.36 1.36l-7.013 4.053a1.05 1.05 0 0 1-.493.133z"/>
      <path d="M16 24.693c-.547 0-1-.453-1-1V16.44c0-.547.453-1 1-1s1 .453 1 1v7.253c0 .547-.453 1-1 1z"/>
      <path d="M16 25c-.773 0-1.533-.173-2.147-.507L9.586 22.12c-1.28-.707-2.267-2.4-2.267-3.867v-4.52c0-1.453 1-3.147 2.267-3.867l4.267-2.373c1.227-.68 3.067-.68 4.293 0l4.267 2.373c1.28.707 2.267 2.4 2.267 3.867v4.52c0 1.453-1 3.147-2.267 3.867l-4.267 2.373c-.613.347-1.373.507-2.147.507zm0-16c-.44 0-.867.08-1.173.253l-4.267 2.373c-.653.36-1.24 1.373-1.24 2.107v4.52c0 .747.587 1.747 1.24 2.107l4.267 2.373c.613.347 1.733.347 2.347 0l4.267-2.373c.653-.36 1.24-1.373 1.24-2.107v-4.52c0-.747-.587-1.747-1.24-2.107l-4.267-2.373C16.867 9.08 16.441 9 16.001 9z"/>
    </symbol>
    <symbol id="icon-chevron" viewBox="0 0 32 32">
      <path stroke-linecap="round" stroke-linejoin="round" stroke-width="4" d="m12 24 8-8-8-8"/>
    </symbol>
    <symbol id="icon-key" viewBox="0 0 32 32">
      <path stroke-linecap="round" stroke-linejoin="round" stroke-width="2" d="M12 29.333h8c6.667 0 9.333-2.667 9.333-9.333v-8c0-6.667-2.667-9.333-9.333-9.333h-8c-6.667 0-9.333 2.667-9.333 9.333v8c0 6.667 2.667 9.333 9.333 9.333z"/>
      <path stroke-linecap="round" stroke-linejoin="round" stroke-miterlimit="10" stroke-width="2" d="M21.707 18.147a5.529 5.529 0 0 1-5.573 1.373l-3.453 3.44c-.24.253-.733.413-1.093.36l-1.6-.213c-.533-.067-1.013-.573-1.093-1.093l-.213-1.6c-.053-.347.12-.84.36-1.093l3.44-3.44a5.558 5.558 0 0 1 1.373-5.573c2.16-2.16 5.68-2.16 7.853 0 2.16 2.147 2.16 5.667 0 7.84zM13.933 21.707 12.8 20.56"/>
      <path stroke-linecap="round" stroke-linejoin="round" stroke-width="2.667" d="M17.859 14.267h.012"/>
    </symbol>
  </defs>
</svg>
